# AST/ASF file generated using VICON BodyLanguage
# -----------------------------------------------
:version 1.10
:name VICON
:units
  mass 1.0
  length 0.45
  angle deg
:documentation
   .ast/.asf automatically generated from VICON data using
   VICON BodyBuilder and BodyLanguage model FoxedUp or BRILLIANT.MOD
:root
   order TX TY TZ RX RY RZ
   axis XYZ
   position 0 0 0  
   orientation 0 0 0 
:bonedata
  begin
     id 1 
     name lhipjoint
     direction 0.440178 -0.822639 0.359871 
     length 2.53113 
     axis 0 0 0  XYZ
  end
  begin
     id 2 
     name lfemur
     direction 0.34202 -0.939693 0  
     length 7.88132  
     axis 0 0 20  XYZ
    dof rx ry rz
    limits (-160.0 20.0)
           (-70.0 70.0)
           (-60.0 70.0)
  end
  begin
     id 3 
     name ltibia
     direction 0.34202 -0.939693 0   
     length 8.43783   
     axis 0 0 20   XYZ
    dof rx
    limits (-10.0 170.0)
  end
  begin
     id 4 
     name lfoot
     direction 0.0886351 -0.243523 0.965837   
     length 2.63414   
     axis -90 7.62852e-016 20   XYZ
    dof rx rz
    limits (-45.0 90.0)
           (-70.0 20.0)
  end
  begin
     id 5 
     name ltoes
     direction 1.53703e-011 -4.21717e-011 1   
     length 1.31427   
     axis -90 7.62852e-016 20   XYZ
    dof rx
    limits (-90.0 20.0)
  end
  begin
     id 6 
     name rhipjoint
     direction -0.399779 -0.839773 0.367367   
     length 2.47948  
     axis 0 0 0  XYZ 
  end
  begin
     id 7 
     name rfemur
     direction -0.34202 -0.939693 0   
     length 7.74806   
     axis 0 0 -20   XYZ
    dof rx ry rz
    limits (-160.0 20.0)
           (-70.0 70.0)
           (-70.0 60.0)
  end
  begin
     id 8 
     name rtibia
     direction -0.34202 -0.939693 0   
     length 8.74432   
     axis 0 0 -20   XYZ
    dof rx
    limits (-10.0 170.0)
 end
 begin
     id 9 
     name rfoot
     direction -0.108514 -0.298139 0.948334   
     length 2.66102  
     axis -90 -7.62852e-016 -20   XYZ
    dof rx rz
    limits (-45.0 90.0)
           (-20.0 70.0)
  end
  begin
     id 10 
     name rtoes
     direction -1.53392e-011 -4.22077e-011 1   
     length 1.31983   
     axis -90 -7.62852e-016 -20   XYZ
    dof rx
    limits (-90.0 20.0)
  end
  begin
     id 11 
     name lowerback
     direction 0.0113257 0.999866 0.0118602   
     length 2.58694   
     axis 0 0 0   XYZ
    dof rx ry rz
    limits (-20.0 45.0)
           (-30.0 30.0)
           (-30.0 30.0)
  end
  begin
     id 12 
     name upperback
     direction -0.0164747 0.995193 -0.0965375   
     length 2.52368   
     axis 0 0 0   XYZ
    dof rx ry rz
    limits (-20.0 45.0)
           (-30.0 30.0)
           (-30.0 30.0)
  end
  begin
     id 13 
     name thorax
     direction -0.0194301 0.99433 -0.104552   
     length 2.56099   
     axis 0 0 0   XYZ
    dof rx ry rz
    limits (-20.0 45.0)
           (-30.0 30.0)
           (-30.0 30.0)
  end
  begin
     id 14 
     name lowerneck
     direction 0.0148543 0.995587 -0.092657   
     length 1.71582   
     axis 0 0 0   XYZ
    dof rx ry rz
    limits (-20.0 45.0)
           (-30.0 30.0)
           (-30.0 30.0)
  end
  begin
     id 15 
     name upperneck
     direction -0.0135467 0.993656 -0.111639   
     length 1.68937   
     axis 0 0 0   XYZ
    dof rx ry rz
    limits (-20.0 45.0)
           (-30.0 30.0)
           (-30.0 30.0)
  end
  begin
     id 16
     name head
     direction -0.00615349 0.999547 -0.029448  
     length 1.7462  
     axis 0 0 0   XYZ
    dof rx ry rz
    limits (-20.0 45.0)
           (-30.0 30.0)
           (-30.0 30.0)
  end
  begin
     id 17 
     name lclavicle
     direction 0.988267 0.149885 0.0293713  
     length 4.47222  
     axis 0 0 0   XYZ
    dof ry rz
    limits (-20.0 10.0)
           (0.0 20.0)
  end
  begin
     id 18 
     name lhumerus
     direction 1 -4.48986e-011 -1.14833e-027   
     length 5.37148   
     axis 180 -30 -90   XYZ
    dof rx ry rz
    limits (-60.0 90.0)
           (-90.0 90.0)
           (-90.0 90.0)
  end
  begin
     id 19
     name lradius
     direction 0.999998 0.00170963 -0.000987055   
     length 3.94212   
     axis 180 -30 -90   XYZ
    dof rx
    limits (-10.0 170.0)
  end
  begin
     id 20
     name lwrist
     direction 0.999998 7.53149e-005 -0.00194706   
     length 1.97106   
     axis 4.65056e-015 90 90   XYZ
    dof ry
    limits (-180.0 0.0)
 end
  begin
     id 21 
     name lhand
     direction 1 -4.48973e-011 -1.31746e-026   
     length 1.17917   
     axis 8.4065e-015 90 90   XYZ
    dof rx rz
    limits (-90.0 90.0)
           (-45.0 45.0)
  end
  begin
     id 22 
     name lfingers
     direction 1 -4.49107e-011 -2.63492e-026   
     length 0.950679   
     axis 1.6813e-014 90 90   XYZ
    dof rx
    limits (0.0 90.0)
  end
  begin
     id 23
     name lthumb
     direction 0.707107 -6.35048e-011 0.707107   
     length 1.36499   
     axis -90 45 2.85299e-015   XYZ
    dof rx rz
    limits (-45.0 45.0)
           (-45.0 45.0)
  end
  begin
     id 24 
     name rclavicle
     direction -0.996699 0.0642895 -0.0495725   
     length 4.62611  
     axis 0 0 0   XYZ 
    dof ry rz
    limits (-10.0 20.0)
           (-20.0 0.0)
  end
  begin
     id 25 
     name rhumerus
     direction -1 -4.48919e-011 -2.41059e-027  
     length 5.4981   
     axis 180 30 90   XYZ
    dof rx ry rz
    limits (-90.0 60.0)
           (-90.0 90.0)
           (-90.0 90.0)
  end
  begin
     id 26 
     name rradius
     direction -0.999999 0.00118101 -0.000681858   
     length 3.48381   
     axis 180 30 90   XYZ
    dof rx
    limits (-10.0 170.0)
  end
  begin
     id 27 
     name rwrist
     direction -0.999999 0.000321823 -0.00132288   
     length 1.7419   
     axis 4.65056e-015 -90 -90   XYZ
    dof ry
    limits (-180.0 0.0)
  end
  begin
     id 28
     name rhand
     direction -1 -4.49022e-011 -1.31746e-026   
     length 1.34932   
     axis 8.4065e-015 -90 -90   XYZ
    dof rx rz
    limits (-90.0 90.0)
           (-45.0 45.0)
  end
  begin
     id 29
     name rfingers
     direction -1 -4.49178e-011 -2.63492e-026   
     length 1.08785   
     axis 1.6813e-014 -90 -90   XYZ
    dof rx
    limits (0.0 90.0)
  end
  begin
     id 30
     name rthumb
     direction -0.707107 -6.34713e-011 0.707107   
     length 1.56195   
     axis -90 -45 -2.85299e-015   XYZ
    dof rx rz
    limits (-45.0 45.0)
           (-45.0 45.0)
  end
:hierarchy
  begin
    root lhipjoint rhipjoint lowerback
    lhipjoint lfemur
    lfemur ltibia
    ltibia lfoot
    lfoot ltoes
    rhipjoint rfemur
    rfemur rtibia
    rtibia rfoot
    rfoot rtoes
    lowerback upperback
    upperback thorax
    thorax lowerneck lclavicle rclavicle
    lowerneck upperneck
    upperneck head
    lclavicle lhumerus
    lhumerus lradius
    lradius lwrist
    lwrist lhand lthumb
    lhand lfingers
    rclavicle rhumerus
    rhumerus rradius
    rradius rwrist
    rwrist rhand rthumb
    rhand rfingers
  end

#!OML:ASF X:\für Bonn\!DataBase\2005_08_10_Bjorn_Final\c3d\bjorn.ASF
:FULLY-SPECIFIED
:DEGREES
1
root -9.82174 18.7764 -1.4888 1274.78 265.915 -198.954
lowerback -2.05553 3.03136 2.21304
upperback 9.82472 3.78166 -1.61541
thorax 11.9767 2.01283 -2.53555
lowerneck -2.59413 -4.98353 1.16902
upperneck 2.86357 -6.73489 1.15867
head 1.31426 -3.33095 0.0361666
rclavicle -3.49861e-014 1.59028e-015
rhumerus -24.1734 -2.42073 -91.8093
rradius 57.8413
rwrist -11.9561
rhand -11.5118 9.99675
rfingers 7.12502
rthumb 14.5274 -19.4746
lclavicle -3.49861e-014 1.59028e-015
lhumerus -36.5981 19.6804 76.942
lradius 15.6076
lwrist -46.4717
lhand -8.2259 -5.70494
lfingers 7.12502
lthumb 17.6915 23.5102
rfemur 22.3277 -4.19649 16.3429
rtibia 12.6785
rfoot -12.6025 16.0334
rtoes -6.63843
lfemur -25.92 5.7033 -16.6801
ltibia 26.729
lfoot 2.98318 -3.62477
ltoes -6.58829
2
root -9.99314 18.7749 -1.45157 1271.68 266.04 -195.918
lowerback -2.15905 3.07001 1.91538
upperback 9.85492 3.87041 -1.76896
thorax 12.0703 2.03627 -2.5198
lowerneck -2.53346 -5.04465 0.963803
upperneck 2.75499 -6.81181 1.33514
head 1.28346 -3.36999 0.12508
rclavicle 3.63776e-014 -2.3059e-014
rhumerus -24.1901 -2.28437 -91.9294
rradius 58.209
rwrist -12.3335
rhand -11.4839 10.0777
rfingers 7.12502
rthumb 14.5543 -19.3917
lclavicle 3.63776e-014 -2.3059e-014
lhumerus -36.2396 20.0518 76.7475
lradius 15.54
lwrist -46.9001
lhand -8.03424 -5.70416
lfingers 7.12502
lthumb 17.8759 23.4943
rfemur 21.9816 -3.92832 15.9697
rtibia 14.3079
rfoot -12.054 16.1647
rtoes -7.13674
lfemur -25.7614 5.37019 -16.9346
ltibia 27.5319
lfoot 3.66308 -3.49253
ltoes -5.40123
3
root -10.1656 18.7722 -1.41468 1268.14 266.168 -192.461
lowerback -2.26467 3.09408 1.57669
upperback 9.87505 3.94338 -1.91645
thorax 12.1484 2.04732 -2.47683
lowerneck -2.46865 -5.07791 0.751708
upperneck 2.68518 -6.85123 1.48653
head 1.26389 -3.39041 0.207545
rclavicle 5.96354e-014 -1.74931e-014
rhumerus -24.264 -2.06473 -92.0308
rradius 58.6618
rwrist -12.7234
rhand -11.3641 10.1128
rfingers 7.12502
rthumb 14.6697 -19.3483
lclavicle 5.96354e-014 -1.74931e-014
lhumerus -35.8757 20.2125 76.7182
lradius 15.5647
lwrist -46.9491
lhand -7.79177 -5.55408
lfingers 7.12502
lthumb 18.1092 23.6229
rfemur 21.5434 -3.62407 15.583
rtibia 16.1297
rfoot -11.4003 16.2758
rtoes -7.88653
lfemur -25.5578 5.06974 -17.2091
ltibia 28.3183
lfoot 4.15875 -3.50496
ltoes -3.50115
4
root -10.3385 18.7703 -1.37809 1264.3 266.252 -188.685
lowerback -2.39996 3.13191 1.24301
upperback 9.91983 4.03585 -2.07392
thorax 12.2764 2.06838 -2.44328
lowerneck -2.49806 -5.14304 0.581077
upperneck 2.65321 -6.93778 1.66582
head 1.27268 -3.4327 0.287594
rclavicle 3.26007e-014 -1.35174e-014
rhumerus -24.2681 -1.94578 -92.1374
rradius 59.1255
rwrist -13.1276
rhand -11.2179 10.0764
rfingers 7.12502
rthumb 14.8105 -19.3743
lclavicle 3.26007e-014 -1.35174e-014
lhumerus -35.4424 20.42 76.6641
lradius 15.5843
lwrist -47.1814
lhand -7.5999 -5.47973
lfingers 7.12502
lthumb 18.2938 23.68
rfemur 21.0426 -3.39179 15.172
rtibia 18.0485
rfoot -10.5919 16.4015
rtoes -8.77088
lfemur -25.3395 4.81321 -17.5105
ltibia 29.0966
lfoot 4.35037 -3.62643
ltoes -2.01143
5
root -10.5115 18.7681 -1.34254 1260.43 266.322 -184.927
lowerback -2.51345 3.16315 0.911374
upperback 9.96801 4.12016 -2.23553
thorax 12.3952 2.08521 -2.41763
lowerneck -2.55028 -5.19238 0.482444
upperneck 2.65558 -7.005 1.79037
head 1.29162 -3.46502 0.33856
rclavicle 6.38099e-014 -3.18055e-014
rhumerus -24.2495 -1.77991 -92.2905
rradius 59.6005
rwrist -13.6013
rhand -11.0276 9.92842
rfingers 7.12502
rthumb 14.9939 -19.5087
lclavicle 6.38099e-014 -3.18055e-014
lhumerus -35.0128 20.6662 76.5707
lradius 15.6165
lwrist -47.4809
lhand -7.5356 -5.36027
lfingers 7.12502
lthumb 18.3556 23.7937
rfemur 20.5199 -3.14436 14.769
rtibia 20.03
rfoot -9.59263 16.5003
rtoes -9.37959
lfemur -25.0453 4.5622 -17.7948
ltibia 29.8474
lfoot 4.24196 -3.679
ltoes -1.25064
6
root -10.6807 18.7644 -1.30869 1256.22 266.279 -180.858
lowerback -2.54828 3.17501 0.536323
upperback 10.0112 4.1803 -2.38509
thorax 12.4532 2.08477 -2.36204
lowerneck -2.62542 -5.25858 0.412791
upperneck 2.72818 -7.09712 1.90104
head 1.33556 -3.50883 0.378325
rclavicle 1.0138e-014 6.36111e-015
rhumerus -24.2426 -1.68751 -92.4119
rradius 60.1346
rwrist -14.0959
rhand -10.7162 9.62786
rfingers 7.12502
rthumb 15.2939 -19.7867
lclavicle 1.0138e-014 6.36111e-015
lhumerus -34.5506 20.6737 76.6183
lradius 15.6828
lwrist -47.5478
lhand -7.67416 -5.18492
lfingers 7.12502
lthumb 18.2223 23.9815
rfemur 19.987 -2.9638 14.363
rtibia 22.0633
rfoot -8.4271 16.528
rtoes -9.4374
lfemur -24.7076 4.34589 -18.1183
ltibia 30.5516
lfoot 3.96865 -3.77009
ltoes -1.16317
7
root -10.8487 18.7631 -1.27517 1252.16 266.177 -176.914
lowerback -2.60372 3.16527 0.147452
upperback 10.0584 4.2123 -2.52491
thorax 12.525 2.06838 -2.29126
lowerneck -2.75065 -5.31877 0.3193
upperneck 2.83011 -7.18204 2.02533
head 1.39926 -3.54833 0.424301
rclavicle -3.3197e-014 -2.46493e-014
rhumerus -24.1848 -1.53025 -92.5072
rradius 60.6526
rwrist -14.5755
rhand -10.5042 9.5121
rfingers 7.12502
rthumb 15.4981 -19.8867
lclavicle -3.3197e-014 -2.46493e-014
lhumerus -34.0982 20.7482 76.65
lradius 15.7866
lwrist -47.6541
lhand -7.98161 -5.05776
lfingers 7.12502
lthumb 17.9265 24.1361
rfemur 19.3736 -2.79734 13.9594
rtibia 24.1524
rfoot -6.96839 16.5218
rtoes -8.47812
lfemur -24.3442 4.09046 -18.445
ltibia 31.1781
lfoot 3.56867 -3.85169
ltoes -1.27279
8
root -11.0147 18.7631 -1.24255 1248.05 266.052 -172.923
lowerback -2.67076 3.14405 -0.275564
upperback 10.1083 4.23234 -2.6632
thorax 12.6041 2.04211 -2.20125
lowerneck -2.89141 -5.37222 0.264659
upperneck 2.9228 -7.25749 2.09729
head 1.45924 -3.58346 0.447858
rclavicle -1.17283e-014 -1.82882e-014
rhumerus -24.048 -1.33941 -92.5794
rradius 61.1016
rwrist -15.0094
rhand -10.2632 9.46046
rfingers 7.12502
rthumb 15.7302 -19.9203
lclavicle -1.17283e-014 -1.82882e-014
lhumerus -33.6273 20.753 76.7403
lradius 15.9237
lwrist -47.6386
lhand -8.46106 -5.02812
lfingers 7.12502
lthumb 17.4652 24.2073
rfemur 18.6634 -2.63981 13.523
rtibia 26.3156
rfoot -5.26148 16.4642
rtoes -7.27596
lfemur -23.9318 3.86203 -18.7901
ltibia 31.694
lfoot 3.11544 -3.94132
ltoes -1.46558
9
root -11.1795 18.767 -1.21241 1243.75 265.956 -168.727
lowerback -2.73906 3.13907 -0.74646
upperback 10.1431 4.27869 -2.79117
thorax 12.663 2.02276 -2.0701
lowerneck -3.08834 -5.4293 0.143246
upperneck 3.1211 -7.33773 2.16921
head 1.56597 -3.62004 0.478703
rclavicle 3.3197e-014 -2.06736e-014
rhumerus -23.8783 -1.06352 -92.6058
rradius 61.5313
rwrist -15.5002
rhand -10.2016 9.70121
rfingers 7.12502
rthumb 15.7895 -19.6748
lclavicle 3.3197e-014 -2.06736e-014
lhumerus -33.1515 20.7652 76.8534
lradius 16.0547
lwrist -47.5132
lhand -8.98455 -5.07291
lfingers 7.12502
lthumb 16.9613 24.2065
rfemur 17.8394 -2.4037 13.0858
rtibia 28.5604
rfoot -3.30516 16.2491
rtoes -5.46782
lfemur -23.449 3.72325 -19.1539
ltibia 32.0752
lfoot 2.57582 -4.01092
ltoes -1.71506
10
root -11.3438 18.7784 -1.1839 1238.99 265.856 -164.034
lowerback -2.83101 3.13122 -1.29658
upperback 10.1589 4.32903 -2.90503
thorax 12.7069 1.99634 -1.87833
lowerneck -3.18901 -5.48181 -0.0421434
upperneck 3.23101 -7.40527 2.23503
head 1.63031 -3.65269 0.522678
rclavicle -3.97569e-015 -5.24792e-014
rhumerus -23.6969 -0.706342 -92.5761
rradius 61.9241
rwrist -15.8802
rhand -10.1249 9.94555
rfingers 7.12502
rthumb 15.8634 -19.4246
lclavicle -3.97569e-015 -5.24792e-014
lhumerus -32.7139 20.6063 77.0691
lradius 16.2717
lwrist -47.0025
lhand -9.51258 -5.23463
lfingers 7.12502
lthumb 16.453 24.0877
rfemur 16.8762 -2.21122 12.575
rtibia 30.8821
rfoot -1.37749 15.8893
rtoes -4.51387
lfemur -22.9116 3.58315 -19.5491
ltibia 32.318
lfoot 1.98209 -4.06238
ltoes -2.00953
11
root -11.5049 18.7952 -1.15519 1234.5 265.751 -159.612
lowerback -2.89035 3.12022 -1.81153
upperback 10.1662 4.37159 -3.02509
thorax 12.7243 1.97007 -1.7158
lowerneck -3.28362 -5.51251 -0.257958
upperneck 3.31966 -7.44366 2.35243
head 1.69041 -3.67049 0.588903
rclavicle 1.23246e-014 1.11319e-014
rhumerus -23.4712 -0.336322 -92.5237
rradius 62.3004
rwrist -16.2513
rhand -9.9906 10.1766
rfingers 7.12502
rthumb 15.9927 -19.1833
lclavicle 1.23246e-014 1.11319e-014
lhumerus -32.2663 20.552 77.2338
lradius 16.4654
lwrist -46.4534
lhand -10.099 -5.48363
lfingers 7.12502
lthumb 15.8883 23.8846
rfemur 15.8128 -2.04799 12.0625
rtibia 33.2614
rfoot 0.371611 15.5007
rtoes -4.88399
lfemur -22.2893 3.49785 -19.9454
ltibia 32.4169
lfoot 1.42452 -4.10589
ltoes -2.46375
12
root -11.6644 18.8143 -1.127 1230.11 265.641 -155.277
lowerback -2.95133 3.12766 -2.31713
upperback 10.1513 4.44106 -3.16921
thorax 12.7209 1.95954 -1.58127
lowerneck -3.32995 -5.55872 -0.378011
upperneck 3.40495 -7.50504 2.42384
head 1.73543 -3.69997 0.626248
rclavicle 8.13029e-014 -4.85035e-014
rhumerus -23.2428 0.0122132 -92.4932
rradius 62.7293
rwrist -16.3669
rhand -9.88322 10.1947
rfingers 7.12502
rthumb 16.0961 -19.1568
lclavicle 8.13029e-014 -4.85035e-014
lhumerus -31.8289 20.2763 77.4097
lradius 16.7103
lwrist -45.6768
lhand -10.6863 -5.81653
lfingers 7.12502
lthumb 15.3227 23.5958
rfemur 14.6653 -1.94048 11.5204
rtibia 35.6594
rfoot 2.01 15.1312
rtoes -6.66265
lfemur -21.6183 3.40797 -20.3437
ltibia 32.3998
lfoot 0.867044 -4.08682
ltoes -2.83984
13
root -11.8208 18.8364 -1.0994 1226.06 265.533 -151.274
lowerback -3.01708 3.12778 -2.81161
upperback 10.1316 4.49879 -3.29791
thorax 12.714 1.94366 -1.43776
lowerneck -3.34648 -5.58791 -0.520458
upperneck 3.42605 -7.54083 2.49696
head 1.75529 -3.71779 0.670434
rclavicle 4.85035e-014 1.90833e-014
rhumerus -22.9111 0.390757 -92.4009
rradius 63.1293
rwrist -16.3818
rhand -9.72087 10.1241
rfingers 7.12502
rthumb 16.2524 -19.2147
lclavicle 4.85035e-014 1.90833e-014
lhumerus -31.3882 19.8673 77.6749
lradius 17.0223
lwrist -44.7506
lhand -11.2103 -6.02298
lfingers 7.12502
lthumb 14.8179 23.4272
rfemur 13.4579 -1.82649 11.0049
rtibia 38.0183
rfoot 3.83384 14.6517
rtoes -7.77495
lfemur -20.93 3.32288 -20.719
ltibia 32.3001
lfoot 0.361953 -4.04325
ltoes -3.32599
14
root -11.9763 18.8593 -1.07248 1222.23 265.443 -147.474
lowerback -3.06229 3.13841 -3.2674
upperback 10.0811 4.56748 -3.44617
thorax 12.6636 1.93941 -1.33667
lowerneck -3.32877 -5.60979 -0.588977
upperneck 3.4811 -7.57055 2.5484
head 1.77589 -3.73213 0.696482
rclavicle -1.72943e-014 2.94201e-014
rhumerus -22.6044 0.768668 -92.338
rradius 63.5606
rwrist -16.3447
rhand -9.61968 10.0722
rfingers 7.12502
rthumb 16.3499 -19.2586
lclavicle -1.72943e-014 2.94201e-014
lhumerus -30.9987 19.3781 77.8963
lradius 17.3955
lwrist -43.7335
lhand -11.7062 -6.14992
lfingers 7.12502
lthumb 14.3401 23.3348
rfemur 12.2383 -1.69458 10.5156
rtibia 40.2959
rfoot 5.76442 14.008
rtoes -7.94796
lfemur -20.2319 3.30968 -21.0709
ltibia 32.1727
lfoot -0.186468 -4.00908
ltoes -3.62414
15
root -12.1285 18.8841 -1.0463 1219.25 265.362 -144.509
lowerback -3.10779 3.15715 -3.63408
upperback 10.0156 4.63977 -3.60255
thorax 12.6035 1.94724 -1.29322
lowerneck -3.29913 -5.64322 -0.58728
upperneck 3.54339 -7.61828 2.57282
head 1.79272 -3.75517 0.702344
rclavicle -2.28602e-014 -5.56597e-015
rhumerus -22.2721 1.10312 -92.2817
rradius 64.0201
rwrist -16.3308
rhand -9.57875 10.0487
rfingers 7.12502
rthumb 16.3893 -19.2789
lclavicle -2.28602e-014 -5.56597e-015
lhumerus -30.5623 18.4445 78.243
lradius 17.8654
lwrist -42.2017
lhand -12.0096 -6.08527
lfingers 7.12502
lthumb 14.0478 23.42
rfemur 10.9929 -1.61191 10.0963
rtibia 42.4769
rfoot 7.21225 13.4846
rtoes -8.63362
lfemur -19.567 3.28481 -21.3544
ltibia 32.0416
lfoot -0.679655 -3.98241
ltoes -3.78972
